<?xml version="1.0" encoding="UTF-8"?>
<svg width="651px" height="209px" viewBox="0 0 651 209" version="1.1" xmlns="http://www.w3.org/2000/svg" xmlns:xlink="http://www.w3.org/1999/xlink">
    <!-- Generator: Sketch 50.2 (55047) - http://www.bohemiancoding.com/sketch -->
    <title>Group 5@3x</title>
    <desc>Created with Sketch.</desc>
    <defs>
        <radialGradient cx="0%" cy="-9.61730695e-13%" fx="0%" fy="-9.61730695e-13%" r="100%" gradientTransform="translate(0.000000,-0.000000),scale(1.000000,0.414773),translate(-0.000000,0.000000)" id="radialGradient-1">
            <stop stop-color="#B589F0" offset="0%"></stop>
            <stop stop-color="#C18FE3" offset="100%"></stop>
        </radialGradient>
        <radialGradient cx="2.56236903%" cy="3.21333051%" fx="2.56236903%" fy="3.21333051%" r="226.027397%" gradientTransform="translate(0.025624,0.032133),scale(1.000000,0.442424),rotate(90.000000),translate(-0.025624,-0.032133)" id="radialGradient-2">
            <stop stop-color="#BC9CF5" offset="0%"></stop>
            <stop stop-color="#AE86F7" offset="100%"></stop>
        </radialGradient>
        <radialGradient cx="100%" cy="14.8116633%" fx="100%" fy="14.8116633%" r="100%" gradientTransform="translate(1.000000,0.148117),scale(1.000000,0.390625),translate(-1.000000,-0.148117)" id="radialGradient-3">
            <stop stop-color="#EBA3B9" offset="0%"></stop>
            <stop stop-color="#AE86F7" offset="100%"></stop>
        </radialGradient>
        <linearGradient x1="50%" y1="100%" x2="50%" y2="3.061617e-15%" id="linearGradient-4">
            <stop stop-color="#DB9BC8" offset="0%"></stop>
            <stop stop-color="#F7F3FF" offset="100%"></stop>
        </linearGradient>
        <linearGradient x1="50%" y1="0%" x2="50%" y2="100%" id="linearGradient-5">
            <stop stop-color="#C76ECF" offset="0%"></stop>
            <stop stop-color="#CE7CA5" offset="100%"></stop>
        </linearGradient>
        <linearGradient x1="50%" y1="0%" x2="50%" y2="100%" id="linearGradient-6">
            <stop stop-color="#F5B3FB" offset="0%"></stop>
            <stop stop-color="#CE7CA5" offset="100%"></stop>
        </linearGradient>
        <linearGradient x1="50%" y1="100%" x2="50%" y2="3.061617e-15%" id="linearGradient-7">
            <stop stop-color="#CA6586" offset="0%"></stop>
            <stop stop-color="#D968BD" offset="100%"></stop>
        </linearGradient>
        <linearGradient x1="50%" y1="-2.48949813e-15%" x2="50%" y2="100%" id="linearGradient-8">
            <stop stop-color="#BE91FF" offset="0%"></stop>
            <stop stop-color="#8A54D6" offset="100%"></stop>
        </linearGradient>
        <linearGradient x1="50%" y1="-2.48949813e-15%" x2="50%" y2="100%" id="linearGradient-9">
            <stop stop-color="#B6B6FF" offset="0%"></stop>
            <stop stop-color="#7D5BD3" offset="100%"></stop>
        </linearGradient>
        <linearGradient x1="50%" y1="100%" x2="50%" y2="3.061617e-15%" id="linearGradient-10">
            <stop stop-color="#3B5DD7" offset="0%"></stop>
            <stop stop-color="#8A54D6" offset="100%"></stop>
        </linearGradient>
        <radialGradient cx="2.56236903%" cy="3.21333051%" fx="2.56236903%" fy="3.21333051%" r="190.09901%" gradientTransform="translate(0.025624,0.032133),scale(1.000000,0.526042),rotate(90.000000),translate(-0.025624,-0.032133)" id="radialGradient-11">
            <stop stop-color="#EBA3B9" offset="0%"></stop>
            <stop stop-color="#AE86F7" offset="100%"></stop>
        </radialGradient>
        <linearGradient x1="50%" y1="100%" x2="50%" y2="3.061617e-15%" id="linearGradient-12">
            <stop stop-color="#AC8FF0" offset="0%"></stop>
            <stop stop-color="#9666D7" offset="100%"></stop>
        </linearGradient>
        <linearGradient x1="50%" y1="100%" x2="50%" y2="-2.48949813e-15%" id="linearGradient-13">
            <stop stop-color="#7A42FF" offset="0%"></stop>
            <stop stop-color="#9666D7" offset="100%"></stop>
        </linearGradient>
        <linearGradient x1="-2.22044605e-14%" y1="50%" x2="100%" y2="50%" id="linearGradient-14">
            <stop stop-color="#4F46A9" offset="0%"></stop>
            <stop stop-color="#7A30ED" offset="100%"></stop>
        </linearGradient>
        <linearGradient x1="50%" y1="-2.48949813e-15%" x2="50%" y2="100%" id="linearGradient-15">
            <stop stop-color="#9A91ED" offset="0%"></stop>
            <stop stop-color="#7A30ED" offset="100%"></stop>
        </linearGradient>
        <linearGradient x1="50%" y1="0%" x2="50%" y2="100%" id="linearGradient-16">
            <stop stop-color="#7FA2F2" offset="0%"></stop>
            <stop stop-color="#731FEC" offset="100%"></stop>
        </linearGradient>
        <linearGradient x1="50%" y1="0%" x2="50%" y2="100%" id="linearGradient-17">
            <stop stop-color="#80A4F3" offset="0%"></stop>
            <stop stop-color="#6B7CE6" offset="100%"></stop>
        </linearGradient>
        <linearGradient x1="50%" y1="0%" x2="50%" y2="100%" id="linearGradient-18">
            <stop stop-color="#739BEB" offset="0%"></stop>
            <stop stop-color="#7A29EE" offset="100%"></stop>
        </linearGradient>
        <linearGradient x1="50%" y1="-2.48949813e-15%" x2="50%" y2="100%" id="linearGradient-19">
            <stop stop-color="#E891F0" offset="0%"></stop>
            <stop stop-color="#CE7CA5" offset="100%"></stop>
        </linearGradient>
        <linearGradient x1="50%" y1="100%" x2="50%" y2="3.061617e-15%" id="linearGradient-20">
            <stop stop-color="#F0ADF1" offset="0%"></stop>
            <stop stop-color="#D585B4" offset="100%"></stop>
        </linearGradient>
        <linearGradient x1="50%" y1="0%" x2="50%" y2="100%" id="linearGradient-21">
            <stop stop-color="#F0ADF1" offset="0%"></stop>
            <stop stop-color="#D585B4" offset="100%"></stop>
        </linearGradient>
        <linearGradient x1="50%" y1="100%" x2="50%" y2="3.061617e-15%" id="linearGradient-22">
            <stop stop-color="#80A4F3" offset="0%"></stop>
            <stop stop-color="#6B7CE6" offset="100%"></stop>
        </linearGradient>
        <linearGradient x1="50%" y1="0%" x2="50%" y2="100%" id="linearGradient-23">
            <stop stop-color="#D567FF" offset="0%"></stop>
            <stop stop-color="#D594FF" offset="100%"></stop>
        </linearGradient>
        <path d="M0.829268293,20 L34,0 L67.1707317,20 L68,20 L68,67 L0,67 L0,20 L0.829268293,20 Z" id="path-24"></path>
        <linearGradient x1="50%" y1="0%" x2="50%" y2="100%" id="linearGradient-26">
            <stop stop-color="#8BACFF" offset="0%"></stop>
            <stop stop-color="#A6BFFF" offset="100%"></stop>
        </linearGradient>
        <linearGradient x1="50%" y1="100%" x2="50%" y2="3.061617e-15%" id="linearGradient-27">
            <stop stop-color="#7776DB" offset="0%"></stop>
            <stop stop-color="#7D5BD3" offset="100%"></stop>
        </linearGradient>
        <linearGradient x1="-25%" y1="100%" x2="50%" y2="3.061617e-15%" id="linearGradient-28">
            <stop stop-color="#7776DB" offset="0%"></stop>
            <stop stop-color="#7D5BD3" offset="100%"></stop>
        </linearGradient>
        <linearGradient x1="100%" y1="50%" x2="0%" y2="50%" id="linearGradient-29">
            <stop stop-color="#FF9EFB" offset="0%"></stop>
            <stop stop-color="#FF8BFA" offset="100%"></stop>
        </linearGradient>
        <linearGradient x1="50%" y1="71.895705%" x2="50%" y2="100%" id="linearGradient-30">
            <stop stop-color="#B78AF4" stop-opacity="0" offset="0%"></stop>
            <stop stop-color="#978CFC" offset="100%"></stop>
        </linearGradient>
        <linearGradient x1="50%" y1="-2.48949813e-15%" x2="50%" y2="58.8466402%" id="linearGradient-31">
            <stop stop-color="#FFFAFE" offset="0%"></stop>
            <stop stop-color="#FFFFFF" offset="100%"></stop>
        </linearGradient>
    </defs>
    <g id="Page-1" stroke="none" stroke-width="1" fill="none" fill-rule="evenodd">
        <g id="remoto-5" transform="translate(-101.000000, -88.000000)">
            <g id="Group">
                <g id="Bitmap" transform="translate(0.000000, -90.000000)">
                    <g id="Group-5" transform="translate(101.000000, 90.000000)">
                        <g id="Group" transform="translate(95.000000, 106.000000)">
                            <rect id="Rectangle-2" fill="url(#radialGradient-1)" x="10" y="23" width="73" height="176"></rect>
                            <rect id="Rectangle-2" fill="url(#radialGradient-2)" x="450" y="34" width="73" height="165"></rect>
                            <path d="M348,36.8866499 L348,196 L275,196 L275,36.8866499 L274,36.8866499 L311.5,4 L349,36.8866499 L348,36.8866499 Z" id="Combined-Shape" fill="url(#radialGradient-3)" opacity="0.5"></path>
                            <rect id="Rectangle-8" fill="url(#linearGradient-4)" opacity="0.146819196" x="467" y="46" width="4" height="128"></rect>
                            <rect id="Rectangle-8" fill="url(#linearGradient-4)" opacity="0.146819196" x="479" y="46" width="4" height="128"></rect>
                            <rect id="Rectangle-8" fill="url(#linearGradient-4)" opacity="0.146819196" x="491" y="46" width="4" height="128"></rect>
                            <rect id="Rectangle-8" fill="url(#linearGradient-4)" opacity="0.146819196" x="502" y="46" width="4" height="128"></rect>
                            <rect id="Rectangle-5" fill="url(#linearGradient-5)" x="512" y="71" width="44" height="128"></rect>
                            <rect id="Rectangle-5" fill="url(#linearGradient-6)" x="540" y="71" width="16" height="128"></rect>
                            <rect id="Rectangle-5" fill="url(#linearGradient-7)" x="499" y="71" width="13" height="128"></rect>
                            <rect id="Rectangle-5" fill="url(#linearGradient-8)" x="383" y="0" width="54" height="199"></rect>
                            <rect id="Rectangle-5" fill="url(#linearGradient-8)" x="0" y="85" width="73" height="114"></rect>
                        </g>
                        <g id="Group-2" transform="translate(95.000000, 106.000000)">
                            <path d="M0,85 L4,85 L4,199 L0,199 L0,85 Z M17,85 L21,85 L21,199 L17,199 L17,85 Z M52,85 L56,85 L56,199 L52,199 L52,85 Z M35,85 L39,85 L39,199 L35,199 L35,85 Z M69,85 L73,85 L73,199 L69,199 L69,85 Z" id="Combined-Shape" fill="url(#linearGradient-9)"></path>
                            <path d="M418,14 L431,14 L431,18 L418,18 L418,14 Z M418,26 L431,26 L431,30 L418,30 L418,26 Z M418,38 L431,38 L431,42 L418,42 L418,38 Z M418,50 L431,50 L431,54 L418,54 L418,50 Z M418,62 L431,62 L431,66 L418,66 L418,62 Z M418,74 L431,74 L431,78 L418,78 L418,74 Z M418,86 L431,86 L431,90 L418,90 L418,86 Z M418,98 L431,98 L431,102 L418,102 L418,98 Z M418,110 L431,110 L431,114 L418,114 L418,110 Z M418,122 L431,122 L431,126 L418,126 L418,122 Z M418,134 L431,134 L431,138 L418,138 L418,134 Z M418,146 L431,146 L431,150 L418,150 L418,146 Z M418,158 L431,158 L431,162 L418,162 L418,158 Z M418,170 L431,170 L431,174 L418,174 L418,170 Z" id="Combined-Shape" fill="url(#linearGradient-4)" opacity="0.528459821"></path>
                            <rect id="Rectangle-5" fill="url(#linearGradient-10)" x="367" y="0" width="16" height="199"></rect>
                            <rect id="Rectangle-5" fill="url(#radialGradient-11)" x="158" y="7" width="101" height="192"></rect>
                            <rect id="Rectangle-2" fill="url(#radialGradient-2)" x="86" y="35" width="73" height="165"></rect>
                            <path d="M95,44 L102,44 L102,48 L95,48 L95,44 Z M95,56 L102,56 L102,60 L95,60 L95,56 Z M95,68 L102,68 L102,72 L95,72 L95,68 Z M95,80 L102,80 L102,84 L95,84 L95,80 Z M95,92 L102,92 L102,96 L95,96 L95,92 Z M95,104 L102,104 L102,108 L95,108 L95,104 Z M95,116 L102,116 L102,120 L95,120 L95,116 Z M95,128 L102,128 L102,132 L95,132 L95,128 Z M95,140 L102,140 L102,144 L95,144 L95,140 Z M95,152 L102,152 L102,156 L95,156 L95,152 Z M95,164 L102,164 L102,168 L95,168 L95,164 Z M95,176 L102,176 L102,180 L95,180 L95,176 Z M95,188 L102,188 L102,192 L95,192 L95,188 Z" id="Combined-Shape" fill="url(#linearGradient-4)" opacity="0.528459821"></path>
                            <rect id="Rectangle-5" fill="url(#linearGradient-12)" x="318" y="85" width="44" height="114"></rect>
                            <rect id="Rectangle-5" fill="url(#linearGradient-13)" x="308" y="85" width="10" height="114"></rect>
                            <rect id="Rectangle-5" fill="url(#linearGradient-14)" x="303" y="149" width="17" height="50"></rect>
                            <rect id="Rectangle-5" fill="url(#linearGradient-15)" x="320" y="149" width="58" height="50"></rect>
                            <rect id="Rectangle-5" fill="url(#linearGradient-14)" x="337" y="149" width="17" height="50"></rect>
                            <path d="M168,23 L249,23 L249,27 L168,27 L168,23 Z M168,35 L249,35 L249,39 L168,39 L168,35 Z M168,47 L249,47 L249,51 L168,51 L168,47 Z M168,59 L249,59 L249,63 L168,63 L168,59 Z M168,71 L249,71 L249,75 L168,75 L168,71 Z M168,83 L249,83 L249,87 L168,87 L168,83 Z M168,95 L249,95 L249,99 L168,99 L168,95 Z M168,107 L249,107 L249,111 L168,111 L168,107 Z M168,119 L249,119 L249,123 L168,123 L168,119 Z M168,131 L249,131 L249,135 L168,135 L168,131 Z M168,143 L249,143 L249,147 L168,147 L168,143 Z M168,155 L249,155 L249,159 L168,159 L168,155 Z M168,167 L249,167 L249,171 L168,171 L168,167 Z M168,179 L249,179 L249,183 L168,183 L168,179 Z" id="Combined-Shape" fill="url(#linearGradient-4)" opacity="0.528459821"></path>
                        </g>
                        <g id="Group-3" transform="translate(11.000000, 160.000000)">
                            <rect id="Rectangle-5" fill="url(#linearGradient-16)" x="325" y="17" width="58" height="128"></rect>
                            <rect id="Rectangle-5" fill="url(#linearGradient-10)" x="309" y="17" width="17" height="128"></rect>
                            <rect id="Rectangle-5" fill="url(#linearGradient-17)" x="209" y="95" width="58" height="50"></rect>
                            <rect id="Rectangle-5" fill="url(#linearGradient-18)" x="192" y="95" width="17" height="50"></rect>
                            <rect id="Rectangle-5" fill="#000000" opacity="0.750167411" x="112" y="114" width="55" height="31"></rect>
                            <rect id="Rectangle-5" fill="url(#linearGradient-5)" x="112" y="70" width="55" height="75"></rect>
                            <rect id="Rectangle-5" fill="url(#linearGradient-19)" x="112" y="70" width="10" height="75"></rect>
                            <rect id="Rectangle-5" fill="url(#linearGradient-19)" x="127" y="70" width="10" height="75"></rect>
                            <rect id="Rectangle-5" fill="url(#linearGradient-20)" x="6" y="0" width="13" height="145"></rect>
                            <rect id="Rectangle-5" fill="url(#linearGradient-21)" x="19" y="0" width="54" height="145"></rect>
                            <rect id="Rectangle-5" fill="url(#linearGradient-17)" x="0" y="86" width="44" height="59"></rect>
                        </g>
                        <g id="Group-4" transform="translate(0.000000, 92.000000)">
                            <rect id="Rectangle-5" fill="url(#linearGradient-22)" x="0" y="154" width="11" height="59"></rect>
                            <polygon id="Path-2" fill="url(#linearGradient-23)" opacity="0.608537946" points="11 177 55 166.732143 55 154 11 154"></polygon>
                            <polygon id="Path-4" fill="#FFC1DB" points="30 102 84 68 30 68"></polygon>
                            <rect id="Rectangle-5" fill="#FFFFFF" opacity="0.282198661" x="107" y="182" width="16" height="31"></rect>
                            <rect id="Rectangle-5" fill="#A2B7EC" opacity="0.750167411" x="483" y="0" width="40" height="14"></rect>
                            <rect id="Rectangle-5" fill="#7A93D3" opacity="0.750167411" x="471" y="0" width="12" height="14"></rect>
                            <g id="Rectangle" transform="translate(552.000000, 146.000000)">
                                <mask id="mask-25" fill="white">
                                    <use xlink:href="#path-24"></use>
                                </mask>
                                <use id="Mask" fill="url(#linearGradient-17)" xlink:href="#path-24"></use>
                                <rect fill="url(#linearGradient-18)" mask="url(#mask-25)" x="-1" y="0" width="35" height="67"></rect>
                            </g>
                            <path d="M573,165 L599,165 L599,169 L573,169 L573,165 Z M573,177 L599,177 L599,181 L573,181 L573,177 Z M573,189 L599,189 L599,193 L573,193 L573,189 Z M573,201 L599,201 L599,205 L573,205 L573,201 Z" id="Combined-Shape" fill="url(#linearGradient-26)"></path>
                            <rect id="Rectangle-8" fill="url(#linearGradient-27)" x="346" y="97" width="4" height="106"></rect>
                            <rect id="Rectangle-8" fill="url(#linearGradient-28)" x="358" y="97" width="4" height="106"></rect>
                            <rect id="Rectangle-8" fill="url(#linearGradient-27)" x="370" y="97" width="4" height="106"></rect>
                            <rect id="Rectangle-8" fill="url(#linearGradient-27)" x="381" y="97" width="4" height="106"></rect>
                            <polygon id="Path-2" fill="url(#linearGradient-26)" points="220 191 278 178.5 278 163 220 163"></polygon>
                            <polygon id="Path-2" fill="url(#linearGradient-23)" opacity="0.608537946" points="413 127 457 114.5 457 99 413 99"></polygon>
                            <path d="M413.5,137.5 L456.5,124.5" id="Line" stroke="url(#linearGradient-29)" opacity="0.608537946" stroke-linecap="square"></path>
                        </g>
                        <rect id="Rectangle-7" fill="url(#linearGradient-30)" x="0" y="0" width="651" height="297"></rect>
                        <path d="M112.1,185 L98.2,157.7 L91,157.7 L91,185 L77.1,185 L77.1,114.1 L104.8,114.1 C118.6,114.1 127.4,123.6 127.4,135.9 C127.4,145.8 121.6,153.3 112.3,156 L127.5,185 L112.1,185 Z M91,145.8 L102.2,145.8 C109.2,145.8 113.3,141.8 113.3,136 C113.3,130 109.2,126.1 102.2,126.1 L91,126.1 L91,145.8 Z M148.3,154.8 L170.3,154.8 C170.1,149.9 166.9,145.1 159.3,145.1 C152.4,145.1 148.6,150.3 148.3,154.8 Z M171.6,167.6 L182.7,170.9 C180.2,179.4 172.4,186.5 160.3,186.5 C146.8,186.5 134.9,176.8 134.9,160.2 C134.9,144.5 146.5,134.3 159.1,134.3 C174.3,134.3 183.4,144 183.4,159.8 C183.4,161.7 183.2,163.7 183.2,163.9 L148,163.9 C148.3,170.4 153.8,175.1 160.4,175.1 C166.6,175.1 170,172 171.6,167.6 Z M207.2,185 L193.9,185 L193.9,135.8 L206.6,135.8 L206.6,141.8 C209.3,137 215.6,134.4 221,134.4 C227.7,134.4 233.1,137.3 235.6,142.6 C239.5,136.6 244.7,134.4 251.2,134.4 C260.3,134.4 269,139.9 269,153.1 L269,185 L256.1,185 L256.1,155.8 C256.1,150.5 253.5,146.5 247.4,146.5 C241.7,146.5 238.3,150.9 238.3,156.2 L238.3,185 L225.1,185 L225.1,155.8 C225.1,150.5 222.4,146.5 216.4,146.5 C210.6,146.5 207.2,150.8 207.2,156.2 L207.2,185 Z M304.6,174.4 C311.1,174.4 317.1,169.7 317.1,160.4 C317.1,151.1 311.1,146.4 304.6,146.4 C298.1,146.4 292.1,151.1 292.1,160.4 C292.1,169.6 298.1,174.4 304.6,174.4 Z M304.6,134.3 C319.3,134.3 330.4,145.2 330.4,160.4 C330.4,175.5 319.3,186.5 304.6,186.5 C289.9,186.5 278.8,175.5 278.8,160.4 C278.8,145.2 289.9,134.3 304.6,134.3 Z M357.3,121.1 L357.3,135.8 L367.2,135.8 L367.2,147.6 L357.3,147.6 L357.3,168.2 C357.3,172.5 359.3,173.9 363.1,173.9 C364.7,173.9 366.5,173.7 367.2,173.5 L367.2,184.5 C366,185 363.6,185.7 359.7,185.7 C350.1,185.7 344.1,180 344.1,170.5 L344.1,147.6 L335.2,147.6 L335.2,135.8 L337.7,135.8 C342.9,135.8 345.3,132.4 345.3,128 L345.3,121.1 L357.3,121.1 Z M400.3,174.4 C406.8,174.4 412.8,169.7 412.8,160.4 C412.8,151.1 406.8,146.4 400.3,146.4 C393.8,146.4 387.8,151.1 387.8,160.4 C387.8,169.6 393.8,174.4 400.3,174.4 Z M400.3,134.3 C415,134.3 426.1,145.2 426.1,160.4 C426.1,175.5 415,186.5 400.3,186.5 C385.6,186.5 374.5,175.5 374.5,160.4 C374.5,145.2 385.6,134.3 400.3,134.3 Z M435.9,176.6 C435.9,171.6 440,167.5 445,167.5 C450.1,167.5 454.2,171.6 454.2,176.6 C454.2,181.6 450.1,185.7 445,185.7 C440,185.7 435.9,181.6 435.9,176.6 Z" id="Remoto." fill="#FFFFFF"></path>
                        <path d="M181.915582,117.357351 C185.181704,113.79081 191.678022,109.272775 196.585852,108.226844 C199.971848,107.505238 205.138514,108.505238 212.085852,111.226844 C203.782918,109.961138 197.116252,110.627804 192.085852,113.226844 C187.055453,115.825884 183.72212,120.325884 182.085852,126.726844 C182.075889,126.622682 182.06601,126.520001 182.056217,126.418802 C182.037788,126.607119 182.019049,126.800852 182,127 C180.363733,120.59904 177.030399,116.09904 172,113.5 C166.969601,110.90096 160.302934,110.234294 152,111.5 C158.947338,108.778394 164.114005,107.778394 167.5,108.5 C172.283346,109.519402 178.575618,113.837003 181.915582,117.357351 Z" id="Combined-Shape" fill="url(#linearGradient-31)" opacity="0.663337054"></path>
                        <path d="M545.408867,218.69652 C547.746243,216.144151 552.395285,212.910852 555.907539,212.162339 C558.330701,211.645928 562.028188,212.36157 567,214.309267 C561.058066,213.403474 556.287115,213.880569 552.687147,215.740553 C549.087178,217.600536 546.701703,220.820928 545.53072,225.401729 C545.523589,225.327186 545.51652,225.253703 545.509511,225.181281 C545.496323,225.316049 545.482913,225.454692 545.46928,225.597211 C544.298297,221.01641 541.912822,217.796018 538.312853,215.936035 C534.712885,214.076051 529.941934,213.598956 524,214.504749 C528.971812,212.557052 532.669299,211.84141 535.092461,212.357821 C538.515628,213.087349 543.018646,216.177209 545.408867,218.69652 Z" id="Combined-Shape" fill="url(#linearGradient-31)" opacity="0.663337054"></path>
                        <path d="M164.043061,94.8948901 C166.449676,92.2669126 171.236437,88.9378344 174.852733,88.1671482 C177.347677,87.6354389 181.154695,88.372281 186.273786,90.3776745 C180.155835,89.4450488 175.243554,89.9362769 171.536944,91.8513588 C167.830334,93.7664406 165.374193,97.0822301 164.168523,101.798727 C164.161181,101.721976 164.153902,101.646317 164.146686,101.571749 C164.133107,101.710509 164.1193,101.853259 164.105263,102 C162.899593,97.2835029 160.443452,93.9677134 156.736842,92.0526316 C153.030232,90.1375497 148.117951,89.6463216 142,90.5789474 C147.119091,88.5735538 150.926109,87.8367117 153.421053,88.3684211 C156.945623,89.119559 161.582034,92.3009499 164.043061,94.8948901 Z" id="Combined-Shape" fill="url(#linearGradient-31)" opacity="0.663337054"></path>
                    </g>
                </g>
            </g>
        </g>
    </g>
</svg>